<svg width="12" height="17" viewBox="0 0 12 17" fill="none" xmlns="http://www.w3.org/2000/svg">
<path d="M1.33333 14.1667V11.3333H8.66667C8.84348 11.3333 9.01305 11.2587 9.13807 11.1259C9.2631 10.993 9.33333 10.8129 9.33333 10.625C9.33333 10.4371 9.2631 10.257 9.13807 10.1241C9.01305 9.99129 8.84348 9.91667 8.66667 9.91667H3.33333C2.44928 9.91667 1.60143 9.54353 0.976311 8.87934C0.351189 8.21515 0 7.31431 0 6.375C0 5.43569 0.351189 4.53485 0.976311 3.87066C1.60143 3.20647 2.44928 2.83333 3.33333 2.83333H4.66667V0H7.33333V2.83333H10.6667V5.66667H3.33333C3.15652 5.66667 2.98695 5.74129 2.86193 5.87413C2.7369 6.00697 2.66667 6.18714 2.66667 6.375C2.66667 6.56286 2.7369 6.74303 2.86193 6.87587C2.98695 7.00871 3.15652 7.08333 3.33333 7.08333H8.66667C9.55072 7.08333 10.3986 7.45647 11.0237 8.12066C11.6488 8.78485 12 9.68569 12 10.625C12 11.5643 11.6488 12.4651 11.0237 13.1293C10.3986 13.7935 9.55072 14.1667 8.66667 14.1667H7.33333V17H4.66667V14.1667H1.33333Z" fill="#898989"/>
</svg>
