<svg width="18" height="15" viewBox="0 0 18 15" fill="none" xmlns="http://www.w3.org/2000/svg">
<path d="M16.4169 1.679C17.4469 2.773 17.9999 4 17.9999 5.989C17.9999 9.489 15.5429 12.626 11.9699 14.177L11.0769 12.799C14.4119 10.995 15.0639 8.654 15.3239 7.178C14.7869 7.456 14.0839 7.553 13.3949 7.489C11.5909 7.322 10.1689 5.841 10.1689 4C10.1689 3.07174 10.5377 2.1815 11.194 1.52513C11.8504 0.868749 12.7407 0.5 13.6689 0.5C14.7419 0.5 15.7679 0.99 16.4169 1.679ZM6.41692 1.679C7.44692 2.773 7.99992 4 7.99992 5.989C7.99992 9.489 5.54292 12.626 1.96992 14.177L1.07692 12.799C4.41192 10.995 5.06392 8.654 5.32392 7.178C4.78692 7.456 4.08392 7.553 3.39492 7.489C1.59092 7.322 0.169922 5.841 0.169922 4C0.169922 3.07174 0.538671 2.1815 1.19505 1.52513C1.85143 0.868749 2.74166 0.5 3.66992 0.5C4.74292 0.5 5.76892 0.99 6.41792 1.679H6.41692Z" fill="black"/>
</svg>
