<svg width="634" height="186" viewBox="0 0 634 186" fill="none" xmlns="http://www.w3.org/2000/svg">
<path d="M626.318 3.30345L618.677 11.0388L618.685 15.5183L623.1 15.5109L630.736 7.77761C631.514 9.28338 631.919 10.9577 631.916 12.6568C631.916 18.482 627.253 23.2041 621.5 23.2041C615.747 23.2041 611.083 18.482 611.083 12.6568C611.083 6.83152 615.747 2.1095 621.5 2.1095C623.238 2.1095 624.877 2.54088 626.318 3.30345ZM630.339 2.21602L631.811 3.70741L622.236 13.4025L620.765 13.4056L620.763 11.9111L630.338 2.21497L630.339 2.21602Z" fill="white"/>
<circle opacity="0.5" cx="591" cy="145" r="31" fill="#F0F2F3"/>
<ellipse opacity="0.5" cx="10.5" cy="147" rx="10.5" ry="9" fill="#F0F2F3"/>
<ellipse opacity="0.5" cx="62.5" cy="13" rx="10.5" ry="9" fill="#F0F2F3"/>
<path opacity="0.5" fill-rule="evenodd" clip-rule="evenodd" d="M267.601 147.283C271.905 147.842 274.771 151.142 278.656 152.877C283.656 155.109 291.479 154.28 293.575 158.879C295.635 163.398 289.657 167.607 287.397 172.051C285.456 175.866 285.01 180.462 281.286 183.037C277.509 185.648 272.317 186.484 267.601 185.74C263.272 185.057 260.919 181.066 257.051 179.215C252.233 176.907 244.198 178.187 242.312 173.632C240.449 169.131 247.449 165.574 249.58 161.168C251.422 157.357 250.373 152.378 253.904 149.657C257.502 146.885 262.882 146.669 267.601 147.283Z" fill="#F0F2F3"/>
</svg>
