<svg width="871" height="614" viewBox="0 0 871 614" fill="none" xmlns="http://www.w3.org/2000/svg">
<path d="M749.645 434.704C739.01 496.284 730.406 505.954 723.083 512.404C722.522 514.704 716.663 513.237 699.221 513.641C594.244 513.641 163.881 513.82 163.723 513.82C163.739 513.833 119.659 475.798 114.001 409.216C106.549 322.418 160.912 228.244 225.518 191.004C263.448 168.192 317.299 156.239 359.061 172.287C400.487 185.824 421.125 200.61 460.084 238.516C501.733 271.84 529.172 304.8 601.811 320.92C713.079 342.902 746.821 366.328 749.645 434.704Z" fill="url(#paint0_linear)"/>
<path d="M463.574 613C463.574 613 482.96 466.789 323.989 465.211C165.018 463.633 74.177 456.27 47.5895 355.815C21.002 255.361 176.672 300.826 320.123 370.133C463.574 439.44 625.868 378.957 587.649 185.937C549.429 -7.08316 330.913 -29.9615 353.069 40.5144C375.225 110.99 597.342 242.475 494.143 335.697C396.684 423.735 3 40.5144 3 40.5144M599.607 66.9934C723.557 197.78 801.068 329.183 697.02 391.527C451.338 538.739 509.548 587.755 509.548 587.755C509.548 587.755 530.873 621.152 568.539 572.766C606.205 524.379 628.643 512.038 752.577 476.397C876.511 440.755 866.541 272.98 866.541 272.98L599.607 66.9934Z" stroke="white" stroke-width="7" stroke-miterlimit="10"/>
<path d="M463.574 613C463.574 613 482.96 466.789 323.989 465.211C165.018 463.633 74.1771 456.27 47.5895 355.815C21.002 255.361 176.672 300.826 320.123 370.133C463.574 439.44 625.868 378.957 587.649 185.937C549.429 -7.08316 330.913 -29.9615 353.069 40.5144C375.226 110.99 597.342 242.475 494.143 335.697C396.684 423.735 3 40.5144 3 40.5144" stroke="white" stroke-width="7" stroke-miterlimit="10"/>
<path d="M90.4476 369.327C81.3435 382.907 78.0822 447.726 124.804 453.79C124.804 453.79 143.711 456.579 149.84 477.819C155.969 499.06 191.371 531.933 225.587 508.647C259.802 485.36 238.478 439.591 219.977 426.475C201.476 413.358 203.91 412.766 193.229 398.315C182.548 383.864 181.511 382.981 172.865 387.167C164.219 391.354 174.232 411.46 184.703 422.173C195.174 432.886 185.754 440.86 181.712 439.191C177.671 437.522 172.789 420.903 152.072 421.017C131.355 421.13 127.194 399.791 124.542 387.744C123.471 382.876 121.377 378.444 119.261 374.888C118.286 375.923 116.989 376.585 115.531 376.659C112.27 376.824 109.46 373.992 109.254 370.332C109.138 368.267 109.878 366.38 111.129 365.098C109.038 363.88 105.392 362.21 101.381 362.413C97.7416 362.597 93.8027 364.323 90.4476 369.327Z" fill="url(#paint1_linear)"/>
<g style="mix-blend-mode:overlay" opacity="0.34">
<g style="mix-blend-mode:overlay" opacity="0.34">
<path d="M232.477 502.92C230.089 499.044 227.306 495.428 223.736 491.857C216.976 481.156 214.911 470.766 212.9 460.634C210.416 448.126 208.071 436.311 197.465 424.698C181.543 407.265 178.228 392.058 177.586 385.248C176.978 385.405 176.329 385.632 175.628 385.916C176.357 393.222 179.937 408.364 195.976 425.925C206.233 437.155 208.531 448.729 210.963 460.981C212.683 469.646 214.44 478.495 219.059 487.59C207.366 477.805 188.534 467.71 154.321 452.868C120.726 438.294 107.006 413.662 101.413 395.566C97.147 381.768 96.819 369.568 97.0093 363.455C96.3404 363.753 95.6731 364.117 95.0128 364.567C94.9017 371.121 95.4437 382.866 99.4992 396.022C105.201 414.517 119.199 439.688 153.501 454.57C192.497 471.487 211.274 482.335 222.036 492.817C224.416 496.581 227.363 500.387 231.078 504.241L231.091 504.23C231.098 504.24 231.103 504.251 231.109 504.261C231.583 503.822 232.043 503.38 232.486 502.931L232.477 502.92Z" fill="#690058"/>
</g>
</g>
<path d="M135.488 343.853C118.676 354.682 135.072 380.866 151.689 394.02C168.306 407.175 175.488 417.632 173.494 464.162C171.501 510.691 209.896 512.287 218.902 511.148C227.908 510.009 247.561 490.222 242.855 458.975C238.149 427.729 219.37 425.29 229.222 390.975C239.074 356.659 211.269 364.834 201.025 376.367C190.781 387.9 184.46 385.116 175.246 369.388C172.273 364.314 169.924 360.431 168.102 357.489C167.605 359.048 166.994 360.495 166.185 361.678C165.641 362.471 164.864 363.034 163.995 363.336C162.729 363.776 161.268 363.665 160.051 362.914C157.997 361.647 157.414 359.039 158.749 357.089C159.754 355.62 160.502 351.575 160.997 348.899C161.096 348.365 161.19 347.864 161.282 347.385C158.895 344.65 153.74 339.983 146.465 340.141C143.211 340.212 139.534 341.248 135.488 343.853Z" fill="url(#paint2_linear)"/>
<g style="mix-blend-mode:overlay" opacity="0.34">
<g style="mix-blend-mode:overlay" opacity="0.34">
<path d="M216.976 366.88C211.545 379.073 196.252 418.12 202.802 458.349C200.797 452.313 198.863 445.598 197.085 438.145C185.171 388.199 142.386 354.541 131.933 346.949C131.513 347.44 131.123 347.943 130.784 348.469C141.115 355.977 183.401 389.25 195.162 438.559C205.063 480.064 219.552 499.38 226.991 507.013C227.484 506.613 227.978 506.184 228.474 505.729C226.266 503.446 223.382 500.069 220.16 495.293C216.659 490.104 212.399 482.687 208.13 472.566C194.018 426.74 213.926 378.228 219.299 366.478C218.537 366.564 217.761 366.7 216.976 366.88Z" fill="#690058"/>
</g>
</g>
<path d="M207.327 498.665L204.237 500.071L146.307 385.178L180.49 324.571L183.509 326.107L150.147 385.261L207.327 498.665Z" fill="#253138"/>
<path d="M144.179 387.721C145.635 389.844 148.628 390.445 150.863 389.063C153.099 387.681 153.731 384.839 152.276 382.716C150.819 380.593 147.827 379.993 145.591 381.376C143.355 382.758 142.723 385.598 144.179 387.721Z" fill="#2D3092"/>
<path d="M177.385 328.191C178.84 330.314 181.832 330.915 184.068 329.533C186.304 328.15 186.937 325.309 185.481 323.186C184.025 321.063 181.032 320.463 178.796 321.845C176.56 323.227 175.929 326.069 177.385 328.191Z" fill="#2D3092"/>
<path d="M212.477 322.004L196.063 350.306L182.938 340.572L179.01 337.655C176.667 335.914 176 332.816 177.437 330.342L184.765 317.725C186.201 315.253 189.315 314.135 192.114 315.086L196.81 316.682L212.477 322.004Z" fill="#00A0ED"/>
<path d="M212.477 322.004L196.063 350.306L182.938 340.572L196.81 316.682L212.477 322.004Z" fill="#0000C6" fill-opacity="0.2"/>
<path d="M244.499 331.48L221.6 370.944C220.106 373.52 216.524 374.188 214.114 372.341L195.352 357.968C189.691 353.632 188.124 346.063 191.634 340.015L200.953 323.953C204.463 317.904 212.038 315.119 218.923 317.344L241.742 324.724C244.674 325.672 245.993 328.904 244.499 331.48Z" fill="#00A0ED"/>
<path d="M234.538 510.011H175.957C178.045 499.862 187.411 492.539 198.303 492.539H212.192C223.083 492.539 232.45 499.862 234.538 510.011Z" fill="url(#paint3_linear)"/>
<path d="M675.903 454.392L671.099 511.737H637.873L633.07 454.392H675.903Z" fill="url(#paint4_linear)"/>
<path d="M634.28 468.904L636.917 500.387H672.059L674.695 468.913L634.28 468.904Z" fill="url(#paint5_linear)"/>
<path d="M642.401 484.78C642.401 490.84 647.566 495.753 653.936 495.753C660.307 495.753 665.471 490.84 665.471 484.78C665.471 478.721 660.307 473.808 653.936 473.808C647.566 473.808 642.401 478.721 642.401 484.78Z" fill="url(#paint6_linear)"/>
<g style="mix-blend-mode:overlay" opacity="0.66">
<g style="mix-blend-mode:overlay">
<g style="mix-blend-mode:overlay">
<path d="M652.018 486.622C652.81 485.87 653.002 485.346 653.226 484.739C653.476 484.058 653.76 483.286 654.803 482.294C655.848 481.303 656.661 481.034 657.378 480.796C657.846 480.641 658.268 480.5 658.771 480.142C657.704 479.216 656.227 478.82 654.59 479.026C652.951 479.231 651.334 480.023 650.037 481.255C648.74 482.486 647.906 484.021 647.69 485.577C647.531 486.714 647.712 487.768 648.2 488.649C648.905 488.143 649.497 487.946 650.036 487.768C650.675 487.555 651.227 487.373 652.018 486.622Z" fill="#E3EBF7"/>
</g>
</g>
<g style="mix-blend-mode:overlay">
<g style="mix-blend-mode:overlay">
<path d="M657.894 482.2C657.255 482.412 656.702 482.595 655.911 483.346C655.119 484.097 654.927 484.622 654.704 485.229C654.453 485.91 654.17 486.682 653.126 487.673C652.081 488.665 651.269 488.934 650.552 489.172C650.083 489.327 649.661 489.467 649.158 489.826C650.041 490.592 651.204 490.996 652.506 490.996C652.778 490.996 653.057 490.978 653.34 490.942C654.978 490.736 656.595 489.945 657.892 488.713C659.189 487.482 660.024 485.947 660.24 484.391C660.399 483.254 660.218 482.2 659.729 481.319C659.025 481.825 658.433 482.021 657.894 482.2Z" fill="#E3EBF7"/>
</g>
</g>
</g>
<path d="M677.373 458.437H630.871C630.227 458.437 629.703 457.941 629.703 457.329V451.186C629.703 450.573 630.227 450.077 630.871 450.077H677.373C678.018 450.077 678.54 450.573 678.54 451.186V457.329C678.54 457.941 678.018 458.437 677.373 458.437Z" fill="white"/>
<path d="M675.194 450.077H633.05L635.059 444.173C635.329 443.377 636.111 442.837 636.992 442.837H671.251C672.133 442.837 672.914 443.377 673.185 444.173L675.194 450.077Z" fill="#F8EDE0"/>
<path d="M659.276 446.032H649.825C648.905 446.032 648.159 445.324 648.159 444.45V442.837H660.942V444.45C660.942 445.324 660.196 446.032 659.276 446.032Z" fill="#E7CCAC"/>
<path d="M665.761 396.257C670.469 401.154 672.547 408.847 671.332 414.018C669.332 421.905 664.164 427.904 661.434 433.372C662.265 428.771 663.877 423.064 665.962 414.065C667.766 406.048 666.893 404.84 665.761 396.257Z" fill="white" fill-opacity="0.7"/>
<path d="M643.984 391.255C648.692 396.153 650.769 403.845 649.555 409.016C647.555 416.904 642.387 422.903 639.657 428.37C640.488 423.769 642.1 418.063 644.185 409.063C645.989 401.047 645.116 399.839 643.984 391.255Z" fill="white" fill-opacity="0.7"/>
<path d="M655.116 389.956C660.892 395.963 663.441 405.4 661.95 411.743C659.497 421.419 653.157 428.778 649.809 435.484C650.828 429.841 652.806 422.84 655.364 411.801C657.577 401.967 656.505 400.485 655.116 389.956Z" fill="white" fill-opacity="0.7"/>
<path d="M482.88 328.187C482.88 328.187 451.085 335.467 431.584 350.028C412.084 364.589 398.691 438.606 398.691 438.606C398.691 438.606 387.803 441.032 389.746 450.74C389.746 450.74 407.943 448.385 417.374 466.902C419.674 471.391 421.437 477.119 422.306 484.399C422.306 484.399 431.917 483.816 432.53 475.905C432.53 475.905 441.169 467.702 443.29 452.195C443.341 451.904 443.392 451.637 443.418 451.346C443.418 451.346 444.376 493.718 439.572 509.589L574.102 509.677L602.173 509.589C602.173 509.589 604.82 501.819 603.336 496.671C603.336 496.671 613.209 483.742 603.157 468.117C603.157 468.117 605.381 380.047 592.601 359.129C579.822 338.21 515.62 326.075 515.62 326.075L482.88 328.187Z" fill="url(#paint7_linear)"/>
<g style="mix-blend-mode:multiply">
<g style="mix-blend-mode:multiply">
<path d="M443.135 452.089C441.014 467.595 432.375 475.798 432.375 475.798C431.762 483.71 422.152 484.292 422.152 484.292C421.283 477.012 419.519 471.284 417.219 466.795C422.305 462.136 428.081 454.928 431.429 444.371C438.202 423.113 433.883 400.009 433.576 398.36C439.097 418.235 442.112 442.624 443.135 452.089Z" fill="#3050BB" fill-opacity="0.3"/>
</g>
</g>
<g style="mix-blend-mode:multiply">
<g style="mix-blend-mode:multiply">
<path d="M603.002 468.01C603.002 468.01 574.722 453.12 554.685 467.207C555.386 452.713 555.127 420.178 541.968 390.873C541.968 390.873 544.844 450.329 519.285 467.013C493.727 483.696 450.278 480.359 439.416 509.482H602.017C603.632 504.376 603.89 499.995 603.181 496.564C603.181 496.564 613.054 484.982 603.002 468.01Z" fill="#3050BB" fill-opacity="0.3"/>
</g>
</g>
<path d="M526.587 492.515C526.587 492.515 555.545 473.28 586.678 480.139C614.427 486.253 609.634 505.307 602.017 509.482H524.193L526.587 492.515Z" fill="#FDB09E"/>
<path d="M527.585 492.889C527.585 492.889 513.983 485.967 502.9 477.977C501.759 477.154 500.33 476.785 498.906 476.942C493.609 477.533 480.132 479.167 470.809 481.458C469.599 481.755 468.768 482.827 468.843 484.011C468.933 485.443 469.303 487.374 470.488 488.965C470.488 488.965 472.968 491.398 476.307 492.974C476.307 492.974 475.128 494.755 475.082 495.609C475.035 496.462 476.281 499.219 477.869 499.853C477.869 499.853 477.373 500.685 477.703 502.069C478.032 503.455 479.501 505.453 480.662 505.638C481.823 505.824 483.944 505.756 483.944 505.756C483.944 505.756 483.039 507.466 483.156 508.627C483.273 509.788 485.339 511.558 486.676 511.838C488.012 512.117 497.18 510.9 498.924 510.301C500.669 509.702 504.185 505.555 504.185 505.555C504.185 505.555 518.27 510.826 529.509 509.625L527.585 492.889Z" fill="#FFC6AD"/>
<path d="M469.915 488.025L483.959 485.961C483.959 485.961 478.993 490.231 476.307 492.974C476.307 492.974 470.73 490.263 469.915 488.025Z" fill="#FDB09E"/>
<path d="M504.185 505.555L499.044 503.957L492.446 508.643C492.446 508.643 498.021 504.822 503.357 506.491L504.185 505.555Z" fill="#FDB09E"/>
<path d="M502.679 477.825C502.679 477.825 499.385 491.404 505.096 497.332C510.808 503.258 529.51 509.625 529.51 509.625C529.51 509.625 528.571 501.462 527.585 492.889C527.585 492.889 510.591 483.775 502.679 477.825Z" fill="#FDB09E"/>
<path d="M477.981 499.675L489.178 490.947C489.498 490.697 489.971 490.742 490.234 491.046C490.497 491.35 490.45 491.799 490.13 492.048C490.113 492.062 490.095 492.075 490.077 492.087L478.114 499.844C478.063 499.877 477.994 499.864 477.96 499.816C477.927 499.771 477.937 499.709 477.981 499.675Z" fill="#FDB09E"/>
<path d="M483.895 505.697L494.359 496.903C494.671 496.641 495.15 496.668 495.427 496.965C495.704 497.262 495.673 497.715 495.36 497.978C495.342 497.993 495.324 498.009 495.304 498.022L483.995 505.815C483.958 505.84 483.909 505.832 483.883 505.798C483.859 505.766 483.864 505.723 483.895 505.697Z" fill="#FDB09E"/>
<path d="M389.591 451.087L347.354 502.568L388.587 502.454L422.152 484.747C422.152 484.747 429.524 448.52 389.591 451.087Z" fill="#F49186"/>
<path d="M379.523 502.061C379.23 502.096 351.96 503.07 351.96 503.07C351.96 503.07 349.636 488.636 350.042 488.709C350.449 488.782 371.441 484.652 372.553 484.801C373.665 484.95 381.695 500.48 381.695 500.48L379.523 502.061Z" fill="#F49186"/>
<path d="M383.722 495.59L378.016 497.775C376.135 498.496 375.087 500.409 375.544 502.285C375.835 503.478 377.074 504.234 378.338 503.988L383.711 502.944L385.724 502.649C386.699 502.506 387.495 501.838 387.764 500.937C388.126 499.73 388.574 498.17 388.588 497.832C388.611 497.264 384.122 486.2 384.122 486.2L383.722 495.59Z" fill="#FDB09E"/>
<path d="M349.902 483.762L351.2 483.481C351.845 483.341 352.426 483.007 352.854 482.528L354.275 480.94C354.871 480.273 355.752 479.896 356.675 479.915L358.409 479.95C359.357 479.969 360.261 479.57 360.857 478.87L361.7 477.879C362.366 477.096 363.412 476.696 364.464 476.822L367.847 477.225C368.389 477.289 368.939 477.215 369.441 477.009L373.57 475.32C373.57 475.32 384.045 478.678 384.615 489.638L384.08 494.713C383.956 495.893 383.028 496.855 381.802 497.076L377.674 497.821C376.737 497.99 375.819 497.451 375.56 496.58L373.499 489.657L374.738 496.675C374.958 497.92 374.124 499.114 372.83 499.407L369.601 500.137C368.229 500.447 366.854 499.631 366.549 498.324L364.506 489.608L365.714 498.661C365.875 499.86 364.981 500.957 363.717 501.109L360.677 501.475C359.611 501.603 358.606 500.975 358.309 499.995L355.289 490.032L357.448 499.914C357.66 500.884 357.054 501.847 356.053 502.129L353.453 502.863C352.319 503.183 351.124 502.584 350.762 501.515L347.028 490.489C346.669 489.43 346.689 488.289 347.084 487.242L347.699 485.616C348.051 484.682 348.882 483.983 349.902 483.762Z" fill="#FFC6AD"/>
<path d="M521.41 329.663C516.043 345.167 507.24 366.51 487.827 366.06C470.877 365.667 473.534 346.405 477.14 335.864C477.676 334.298 477.324 335.183 477.73 334.145C475.931 324.297 475.298 314.158 474.399 304.15C489.605 297.983 504.853 292.033 519.978 285.614C520.035 287.879 520.047 287.993 520.059 290.495C520.07 292.997 520.024 285.835 520.054 292.099C520.084 298.362 520.299 320.197 521.41 329.663Z" fill="#FDB09E"/>
<path d="M477.334 335.104C477.24 335.683 477.603 334.353 477.711 334.2C475.954 324.23 475.288 314.189 474.399 304.15C489.625 297.949 504.811 292.103 520.011 285.555C520.011 285.555 520.515 285.897 519.384 293.261C516.969 303.762 504.43 343.172 477.334 335.104Z" fill="#FF856A"/>
<path d="M444.925 204.558C444.024 208.595 443.027 215.917 446.323 220.101C439.712 216.757 440.722 216.589 435.447 212.434C429.722 207.924 430.27 233.999 431.607 238.501C432.945 243.002 435.056 256.437 442.394 258.545C445.421 268.799 452.37 276.304 458.939 280.258C467.924 285.67 484.049 284.812 498.713 283.949C504.989 283.58 510.996 283.209 516.062 283.329C517.034 282.264 517.94 281.354 518.81 280.517C518.923 282.11 519.134 283.595 519.528 283.919C520.451 284.677 520.659 294.553 520.659 294.553C520.659 294.553 523.862 285.444 523.741 280.877C523.682 278.655 523.641 277.071 523.613 276.025C525.033 274.637 526.49 273.07 528.119 270.949C532.152 265.699 535.518 256.41 537.175 249.108C537.845 251.727 538.188 253.662 538.188 253.662C539.004 243.768 538.599 239.217 537.964 237.155C537.252 234.206 535.405 231.916 531.528 231.166C536.748 223.908 528.973 212.169 528.973 212.169C529.592 215.212 529.219 218.767 528.668 221.632C528.197 219.274 527.471 217.024 525.576 214.901C520.465 206.497 500.8 203.659 500.8 203.659C502.004 204.066 504.205 205.782 506.57 207.854C498.194 207.475 488.554 209.086 479.331 211.993C470.441 214.795 454.46 206.651 448.251 203.175C447.891 202.974 447.503 202.88 447.123 202.878C446.112 202.875 445.156 203.527 444.925 204.558Z" fill="url(#paint8_linear)"/>
<path d="M517.084 278.23C509.879 271.894 507.507 259.756 513.244 254.148C505.211 262.001 483.022 259.348 483.022 259.348C483.022 259.348 488.305 257.48 489.502 252.49C489.502 252.49 464.575 256.954 459.917 260.001C459.917 260.001 459.601 255.509 464.439 251.761C458.097 252.213 452.947 253.462 452.574 256.298C451.576 263.892 456.222 308.222 471.921 318.707C487.62 329.193 505.598 313.026 512.616 305.035C519.634 297.044 516.594 294.124 520.443 287.288C526.124 285.206 528.378 285.995 529.616 275.776C530.854 265.557 521.523 262.448 517.084 278.23Z" fill="#FDB09E"/>
<path d="M419.37 502.454H273.068C272.183 502.454 271.467 503.134 271.467 503.974V508.505C271.467 509.344 272.183 510.025 273.068 510.025H419.37C420.254 510.025 420.97 509.344 420.97 508.505V503.974C420.97 503.134 420.254 502.454 419.37 502.454Z" fill="#182960"/>
<path d="M310.622 398.312H186.604C180.991 398.312 177.133 403.714 179.172 408.719L215.396 497.7C216.59 500.632 219.541 502.562 222.829 502.562H351.224C354.732 502.562 357.142 499.187 355.869 496.059L318.055 403.174C316.861 400.242 313.91 398.312 310.622 398.312Z" fill="#42AAFF"/>
<path d="M185.823 400.468C180.283 400.468 176.474 405.758 178.486 410.66L214.248 497.795C215.426 500.667 218.339 502.557 221.585 502.557H348.336C351.799 502.557 354.179 499.251 352.922 496.188L315.592 405.231C314.413 402.359 311.5 400.468 308.254 400.468H185.823Z" fill="url(#paint9_linear)"/>
<g style="mix-blend-mode:overlay" opacity="0.66">
<g style="mix-blend-mode:overlay" opacity="0.66">
<path d="M271.302 452.316C274.279 459.198 272.63 466.36 267.621 468.313C262.612 470.266 256.139 466.271 253.162 459.389C250.186 452.507 251.834 445.345 256.843 443.392C261.852 441.438 268.326 445.434 271.302 452.316Z" fill="#E3EBF7"/>
</g>
</g>
<path d="M354.621 502.454H219.91C219.03 502.454 218.318 503.131 218.318 503.966V508.513C218.318 509.347 219.03 510.025 219.91 510.025H354.621C355.5 510.025 356.214 509.347 356.214 508.513V503.966C356.214 503.131 355.5 502.454 354.621 502.454Z" fill="#3756C2"/>
<path d="M752.825 518.083H130.481V509.936H752.825V518.083ZM752.825 518.083H614.81V509.936H752.825V518.083Z" fill="#29C3FF"/>
<path d="M752.825 518.083H614.811V509.937H752.825V518.083Z" fill="#299FFF"/>
<path d="M569.018 503.263H437.819V509.936H569.018V503.263ZM528.551 503.263H569.019V509.936H528.551V503.263Z" fill="#ABDAF7"/>
<path d="M528.551 503.263H569.018V509.936H528.551V503.263Z" fill="#6FB1DD"/>
<defs>
<linearGradient id="paint0_linear" x1="430.527" y1="302.567" x2="493.229" y2="589.336" gradientUnits="userSpaceOnUse">
<stop offset="0.01" stop-color="#D9E5F5"/>
<stop offset="0.41" stop-color="#DBE2FA"/>
<stop offset="1" stop-color="#DDDFFF"/>
</linearGradient>
<linearGradient id="paint1_linear" x1="217.891" y1="503.424" x2="113.182" y2="380.773" gradientUnits="userSpaceOnUse">
<stop stop-color="#6956AB"/>
<stop offset="0.41" stop-color="#867FC0"/>
<stop offset="1" stop-color="#A4A8D5"/>
</linearGradient>
<linearGradient id="paint2_linear" x1="221.222" y1="515.399" x2="163.15" y2="427.374" gradientUnits="userSpaceOnUse">
<stop stop-color="#6956AB"/>
<stop offset="0.41" stop-color="#867FC0"/>
<stop offset="1" stop-color="#A4A8D5"/>
</linearGradient>
<linearGradient id="paint3_linear" x1="183.785" y1="513.537" x2="218.751" y2="489.424" gradientUnits="userSpaceOnUse">
<stop stop-color="#666666"/>
<stop offset="0.41" stop-color="#414141"/>
<stop offset="1" stop-color="#1C1C1C"/>
</linearGradient>
<linearGradient id="paint4_linear" x1="654.686" y1="452.702" x2="654.64" y2="513.915" gradientUnits="userSpaceOnUse">
<stop stop-color="#F1DBC1"/>
<stop offset="0.41" stop-color="#ECCDB7"/>
<stop offset="1" stop-color="#E7BFAD"/>
</linearGradient>
<linearGradient id="paint5_linear" x1="654.466" y1="468.206" x2="654.73" y2="500.266" gradientUnits="userSpaceOnUse">
<stop stop-color="#33C88E"/>
<stop offset="0.41" stop-color="#21AE83"/>
<stop offset="1" stop-color="#0F9478"/>
</linearGradient>
<linearGradient id="paint6_linear" x1="643.902" y1="488.949" x2="664.674" y2="477.648" gradientUnits="userSpaceOnUse">
<stop offset="0.01" stop-color="#C69C6D"/>
<stop offset="0.41" stop-color="#A97F53"/>
<stop offset="1" stop-color="#8C6239"/>
</linearGradient>
<linearGradient id="paint7_linear" x1="527.22" y1="389.752" x2="360.126" y2="388.831" gradientUnits="userSpaceOnUse">
<stop stop-color="#33C88E"/>
<stop offset="0.41" stop-color="#21AE83"/>
<stop offset="1" stop-color="#0F9478"/>
</linearGradient>
<linearGradient id="paint8_linear" x1="535.231" y1="246.762" x2="440.524" y2="222.226" gradientUnits="userSpaceOnUse">
<stop stop-color="#5E3434"/>
<stop offset="0.41" stop-color="#4F2C2C"/>
<stop offset="1" stop-color="#3F2323"/>
</linearGradient>
<linearGradient id="paint9_linear" x1="250.288" y1="396.134" x2="254.692" y2="506.78" gradientUnits="userSpaceOnUse">
<stop stop-color="#3997DE"/>
<stop offset="0.41" stop-color="#3574CD"/>
<stop offset="1" stop-color="#3150BC"/>
</linearGradient>
</defs>
</svg>
