<svg width="22" height="21" viewBox="0 0 22 21" fill="none" xmlns="http://www.w3.org/2000/svg">
<path d="M9.89985 0.100098L19.7988 1.5151L21.2128 11.4151L12.0208 20.6071C11.8333 20.7946 11.579 20.8999 11.3138 20.8999C11.0487 20.8999 10.7944 20.7946 10.6068 20.6071L0.706849 10.7071C0.519378 10.5196 0.414063 10.2653 0.414062 10.0001C0.414063 9.73493 0.519378 9.48063 0.706849 9.2931L9.89985 0.100098ZM12.7278 8.5861C12.9136 8.77179 13.1341 8.91907 13.3768 9.01954C13.6195 9.12001 13.8796 9.1717 14.1422 9.17165C14.4049 9.1716 14.6649 9.11982 14.9076 9.01927C15.1502 8.91872 15.3707 8.77135 15.5563 8.5856C15.742 8.39984 15.8893 8.17933 15.9898 7.93666C16.0903 7.69398 16.1419 7.43389 16.1419 7.17124C16.1419 6.90859 16.0901 6.64852 15.9895 6.40588C15.889 6.16324 15.7416 5.94279 15.5558 5.7571C15.3701 5.57141 15.1496 5.42412 14.9069 5.32366C14.6642 5.22319 14.4041 5.1715 14.1415 5.17155C13.611 5.17164 13.1024 5.38245 12.7273 5.7576C12.3523 6.13275 12.1417 6.64151 12.1418 7.17195C12.1419 7.7024 12.3527 8.21108 12.7278 8.5861Z" fill="#2EC4B6"/>
</svg>
