<svg width="22" height="20" viewBox="0 0 22 20" fill="none" xmlns="http://www.w3.org/2000/svg">
<path d="M2.16104 2.46904C3.32111 1.30877 4.87704 0.630129 6.51664 0.569293C8.15624 0.508457 9.75819 1.06993 11.001 2.14104C12.2428 1.07171 13.8426 0.510873 15.4803 0.570804C17.1179 0.630735 18.6724 1.30701 19.8327 2.46425C20.993 3.62148 21.6733 5.17427 21.7375 6.81173C21.8018 8.4492 21.2451 10.0505 20.179 11.295L12.414 19.085C12.0573 19.4419 11.5788 19.6507 11.0746 19.6697C10.5703 19.6886 10.0775 19.5162 9.69504 19.187L9.58504 19.086L1.82104 11.295C0.755532 10.0516 0.198622 8.45175 0.261658 6.81542C0.324693 5.1791 1.00303 3.62686 2.16104 2.46904ZM3.57504 3.88304C2.75728 4.70103 2.2859 5.80249 2.25871 6.95881C2.23152 8.11514 2.65063 9.23753 3.42904 10.093L3.57504 10.247L11 17.672L16.303 12.368L12.768 8.83304L11.708 9.89304C11.4295 10.1717 11.0988 10.3928 10.7348 10.5436C10.3709 10.6945 9.98075 10.7722 9.58675 10.7723C8.79103 10.7725 8.02783 10.4566 7.46504 9.89404C6.90225 9.33152 6.58598 8.56847 6.58579 7.77275C6.5856 6.97703 6.90152 6.21383 7.46404 5.65104L9.56604 3.54804C8.72951 2.88042 7.68245 2.53273 6.61273 2.56737C5.543 2.60201 4.52063 3.0167 3.72904 3.73704L3.57504 3.88304ZM12.061 6.71104C12.2486 6.52357 12.5029 6.41826 12.768 6.41826C13.0332 6.41826 13.2875 6.52357 13.475 6.71104L17.717 10.953L18.425 10.247C19.2565 9.41618 19.7299 8.29296 19.7439 7.1176C19.7579 5.94225 19.3115 4.80806 18.5001 3.9576C17.6887 3.10713 16.5767 2.60791 15.402 2.5667C14.2273 2.52548 13.0831 2.94554 12.214 3.73704L12.061 3.88304L8.87904 7.06504C8.70571 7.23826 8.60202 7.46908 8.58764 7.71371C8.57326 7.95833 8.6492 8.19971 8.80104 8.39204L8.87904 8.47904C9.05226 8.65237 9.28309 8.75607 9.52771 8.77045C9.77233 8.78483 10.0137 8.70889 10.206 8.55704L10.293 8.47904L12.061 6.71104Z" fill="#898D8F"/>
</svg>
