<svg width="30" height="29" viewBox="0 0 30 29" fill="none" xmlns="http://www.w3.org/2000/svg">
<path d="M1.8665 0H27.9665C28.3511 0 28.7199 0.169742 28.9918 0.471883C29.2637 0.774025 29.4165 1.18382 29.4165 1.61111V27.3889C29.4165 27.8162 29.2637 28.226 28.9918 28.5281C28.7199 28.8303 28.3511 29 27.9665 29H1.8665C1.48194 29 1.11313 28.8303 0.841199 28.5281C0.569271 28.226 0.416504 27.8162 0.416504 27.3889V1.61111C0.416504 1.18382 0.569271 0.774025 0.841199 0.471883C1.11313 0.169742 1.48194 0 1.8665 0ZM15.0035 13.9893L5.7061 5.21678L3.82835 7.67211L15.0224 18.2329L26.0148 7.66406L24.1182 5.22644L15.005 13.9893H15.0035Z" fill="white"/>
</svg>
