<svg width="147" height="31" viewBox="0 0 147 31" fill="none" xmlns="http://www.w3.org/2000/svg">
<path opacity="0.8" d="M10.5469 23L5.04688 5.07812H4.90625C5.10417 8.72396 5.20312 11.1562 5.20312 12.375V23H0.875V0.15625H7.46875L12.875 17.625H12.9688L18.7031 0.15625H25.2969V23H20.7812V12.1875C20.7812 11.6771 20.7865 11.0885 20.7969 10.4219C20.8177 9.75521 20.8906 7.98438 21.0156 5.10938H20.875L14.9844 23H10.5469ZM28.4792 5.53125H33.6979L36.9948 15.3594C37.276 16.2135 37.4687 17.224 37.5729 18.3906H37.6667C37.7812 17.3177 38.0052 16.3073 38.3385 15.3594L41.5729 5.53125H46.6823L39.2917 25.2344C38.6146 27.0573 37.6458 28.4219 36.3854 29.3281C35.1354 30.2344 33.6719 30.6875 31.9948 30.6875C31.1719 30.6875 30.3646 30.599 29.5729 30.4219V26.6406C30.1458 26.776 30.7708 26.8438 31.4479 26.8438C32.2917 26.8438 33.026 26.5833 33.651 26.0625C34.2865 25.5521 34.7812 24.776 35.1354 23.7344L35.4167 22.875L28.4792 5.53125ZM49.8646 23V0.15625H54.7083V23H49.8646ZM76.5 23H71.7344V12.7969C71.7344 11.5365 71.5104 10.5938 71.0625 9.96875C70.6146 9.33333 69.901 9.01562 68.9219 9.01562C67.5885 9.01562 66.625 9.46354 66.0312 10.3594C65.4375 11.2448 65.1406 12.7188 65.1406 14.7812V23H60.375V5.53125H64.0156L64.6562 7.76562H64.9219C65.4531 6.92188 66.1823 6.28646 67.1094 5.85938C68.0469 5.42188 69.1094 5.20312 70.2969 5.20312C72.3281 5.20312 73.8698 5.75521 74.9219 6.85938C75.974 7.95312 76.5 9.53646 76.5 11.6094V23ZM89.0573 19.5156C89.8906 19.5156 90.8906 19.3333 92.0573 18.9688V22.5156C90.8698 23.0469 89.4115 23.3125 87.6823 23.3125C85.776 23.3125 84.3854 22.8333 83.5104 21.875C82.6458 20.9062 82.2135 19.4583 82.2135 17.5312V9.10938H79.9323V7.09375L82.5573 5.5L83.9323 1.8125H86.9792V5.53125H91.8698V9.10938H86.9792V17.5312C86.9792 18.2083 87.1667 18.7083 87.5417 19.0312C87.9271 19.3542 88.4323 19.5156 89.0573 19.5156ZM103.13 8.59375C102.12 8.59375 101.328 8.91667 100.755 9.5625C100.182 10.1979 99.8542 11.1042 99.7708 12.2812H106.458C106.438 11.1042 106.13 10.1979 105.536 9.5625C104.943 8.91667 104.141 8.59375 103.13 8.59375ZM103.802 23.3125C100.99 23.3125 98.7917 22.5365 97.2083 20.9844C95.625 19.4323 94.8333 17.2344 94.8333 14.3906C94.8333 11.4635 95.5625 9.20312 97.0208 7.60938C98.4896 6.00521 100.516 5.20312 103.099 5.20312C105.568 5.20312 107.49 5.90625 108.865 7.3125C110.24 8.71875 110.927 10.6615 110.927 13.1406V15.4531H99.6615C99.7135 16.8073 100.115 17.8646 100.865 18.625C101.615 19.3854 102.667 19.7656 104.021 19.7656C105.073 19.7656 106.068 19.6562 107.005 19.4375C107.943 19.2188 108.922 18.8698 109.943 18.3906V22.0781C109.109 22.4948 108.219 22.8021 107.271 23C106.323 23.2083 105.167 23.3125 103.802 23.3125ZM124.844 5.20312C125.49 5.20312 126.026 5.25 126.453 5.34375L126.094 9.8125C125.708 9.70833 125.24 9.65625 124.688 9.65625C123.167 9.65625 121.979 10.0469 121.125 10.8281C120.281 11.6094 119.859 12.7031 119.859 14.1094V23H115.094V5.53125H118.703L119.406 8.46875H119.641C120.182 7.48958 120.911 6.70312 121.828 6.10938C122.755 5.50521 123.76 5.20312 124.844 5.20312ZM146.042 23H141.276V12.7969C141.276 11.5365 141.052 10.5938 140.604 9.96875C140.156 9.33333 139.443 9.01562 138.464 9.01562C137.13 9.01562 136.167 9.46354 135.573 10.3594C134.979 11.2448 134.682 12.7188 134.682 14.7812V23H129.917V5.53125H133.557L134.198 7.76562H134.464C134.995 6.92188 135.724 6.28646 136.651 5.85938C137.589 5.42188 138.651 5.20312 139.839 5.20312C141.87 5.20312 143.411 5.75521 144.464 6.85938C145.516 7.95312 146.042 9.53646 146.042 11.6094V23Z" fill="#1D1D1D"/>
</svg>
