<svg width="21" height="22" viewBox="0 0 21 22" fill="none" xmlns="http://www.w3.org/2000/svg">
<path d="M10.4167 0C12.9142 0 13.4669 2.98412 11.7117 4.76091L8.51202 7.9998C7.92379 8.59524 7.59462 9.39895 7.59618 10.2359L7.59629 10.2933C7.59949 12.014 8.99682 13.4064 10.7175 13.4036C11.5489 13.4022 12.3453 13.0686 12.9295 12.477L16.0922 9.27416C17.8491 7.49498 20.8366 8.04684 20.8333 10.5473C20.8333 16.3725 16.1698 21.0946 10.4167 21.0946C4.66354 21.0946 0 16.3725 0 10.5473C0 4.72202 4.66354 0 10.4167 0ZM19.2562 0.106528C20.0722 0.93327 20.0719 2.26232 19.2557 3.08878L11.4569 10.9854C11.2625 11.1822 10.9975 11.2933 10.7208 11.2939C10.1474 11.2951 9.68164 10.8311 9.68084 10.2576L9.68081 10.237C9.68043 9.95805 9.79014 9.69026 9.98612 9.49181L19.2542 0.106526C19.2547 0.105947 19.2557 0.105947 19.2562 0.106528Z" fill="#898D8F"/>
</svg>
