<svg width="814" height="635" viewBox="0 0 814 635" fill="none" xmlns="http://www.w3.org/2000/svg">
<path d="M171.527 372.453V633.372" stroke="#ECECEC" stroke-width="4.70729" stroke-miterlimit="10"/>
<path d="M427.143 372.453V633.372" stroke="#ECECEC" stroke-width="4.70729" stroke-miterlimit="10"/>
<path d="M119.69 372.453H490.134V352.655H119.69V372.453Z" fill="#202F33"/>
<path d="M813.762 633.372H0" stroke="#202F33" stroke-width="2.35251" stroke-miterlimit="10"/>
<path d="M639.132 457.363C639.132 457.363 675.702 435.271 661.183 358.038" stroke="black" stroke-width="2.35251" stroke-miterlimit="10"/>
<path d="M642.692 374.29H660.368V223.654H642.692V374.29Z" fill="#4A6595"/>
<path d="M658.484 374.294C643.579 374.294 631.493 361.539 631.493 345.793V252.07C631.493 236.332 643.579 223.573 658.484 223.573C673.392 223.573 685.475 236.332 685.475 252.07V345.793C685.475 361.539 673.392 374.294 658.484 374.294Z" fill="#4A6595"/>
<path d="M645.772 374.294C632.566 374.294 621.858 362.993 621.858 349.045V248.821C621.858 234.877 632.566 223.573 645.772 223.573C658.977 223.573 669.686 234.877 669.686 248.821V349.045C669.686 362.993 658.977 374.294 645.772 374.294Z" fill="#4A6595"/>
<path d="M599.445 580.018H579.101V461.568H599.445V580.018Z" fill="#FDFDFF"/>
<path d="M584.366 564.927L525.907 592.83L526.735 600.737L587.691 580.022L584.366 564.927Z" fill="#FDFDFF"/>
<path d="M594.294 564.927L652.75 592.83L651.922 600.737L590.965 580.022L594.294 564.927Z" fill="#FDFDFF"/>
<path d="M542.527 614.869C542.527 623.016 536.27 629.624 528.554 629.624C520.836 629.624 514.581 623.016 514.581 614.869C514.581 606.718 520.836 600.114 528.554 600.114C536.27 600.114 542.527 606.718 542.527 614.869Z" fill="#000103"/>
<path d="M666.723 614.869C666.723 623.016 660.465 629.624 652.75 629.624C645.031 629.624 638.777 623.016 638.777 614.869C638.777 606.718 645.031 600.114 652.75 600.114C660.465 600.114 666.723 606.718 666.723 614.869Z" fill="#000103"/>
<path d="M646.689 469.814H528.755C522.243 469.814 516.964 464.24 516.964 457.359C516.964 450.483 522.243 444.905 528.755 444.905H646.689C653.202 444.905 658.484 450.483 658.484 457.359C658.484 464.24 653.202 469.814 646.689 469.814Z" fill="#4A6595"/>
<path d="M247.154 346.461H238.735V188.393H247.154V346.461Z" fill="#ECECEC"/>
<path d="M286.808 348.104H202.051V339.22H286.808V348.104Z" fill="#ECECEC"/>
<path d="M304.367 279.998L285.691 287.13L214.442 79.1158L233.121 71.9807L304.367 279.998Z" fill="#ECECEC"/>
<path d="M231.726 182.04C231.726 197.011 243.216 209.154 257.397 209.154C264.294 209.154 270.545 206.262 275.157 201.587C269.536 185.944 263.889 170.215 255.59 155.025C242.257 156.009 231.726 167.71 231.726 182.04Z" fill="#ECECEC"/>
<path d="M242.351 160.143L250.881 208.145C250.881 208.145 254.219 209.55 259.096 209.041L242.351 160.143Z" fill="#9E9E9E"/>
<path d="M487.185 195.412L511.4 223.887L535.132 197.801L498.741 155.589L487.185 195.412Z" fill="#F0B99A"/>
<path d="M357.498 340.968H294.73V348.252H357.498V340.968Z" fill="#FDFDFF"/>
<path d="M367.912 351.32C367.912 351.32 340.867 354.617 332.267 333.974L309.8 340.635C307.14 341.026 304.731 339.119 304.415 336.376C304.14 333.995 305.548 331.703 307.77 330.925L325.41 322.646C327.75 321.829 330.181 321.451 332.626 321.552C338.462 321.788 352.852 327.119 368.437 334.444L367.912 351.32Z" fill="#F0B99A"/>
<path d="M514.687 115.678C509.124 106.592 495.663 99.6673 485.423 99.3674C441.489 98.0641 429.958 139.005 429.958 139.005C484.229 95.8058 481.054 156.128 481.054 156.128C481.054 156.128 491.452 162.785 493.992 166.343C505.442 182.368 516.178 177.481 516.178 177.481C519.479 146.575 523.684 130.375 514.687 115.678Z" fill="#734949"/>
<path d="M440.286 124.428C440.286 124.428 423.76 135.528 432.318 159.575C432.318 159.575 438.7 176.923 448.084 201.822C453.041 214.976 468.493 220.536 479.412 212.327C486.098 207.295 493.025 200.378 497.93 191.162L504.12 176.382C516.693 137.271 476.38 101.771 442.717 122.843C441.912 123.346 441.103 123.872 440.286 124.428Z" fill="#F0B99A"/>
<path d="M482.404 163.95C476.193 164.599 470.5 160.241 469.156 153.812L465.112 134.418C465.112 134.418 447.807 155.154 437.63 138.123C437.63 138.123 412.041 153.099 406.657 134.114C401.27 115.132 418.116 110.356 454.738 98.7808C454.738 98.7808 447.539 92.1644 452.96 88.7129C458.384 85.2615 469.682 93.539 469.682 93.539C469.682 93.539 469.872 82.2521 476.142 82.1923C482.417 82.1325 485.67 89.9395 485.67 89.9395C485.67 89.9395 530.883 82.3387 524.175 134.885L516.188 177.485L489.835 156.495L482.404 163.95Z" fill="#734949"/>
<path d="M503.548 153.418C506.865 160.082 504.436 168.318 498.122 171.809C491.809 175.301 484.002 172.729 480.68 166.066C477.363 159.402 479.792 151.171 486.106 147.679C492.419 144.183 500.23 146.755 503.548 153.418Z" fill="#F0B99A"/>
<path d="M488.26 164.957C488.26 164.957 483.894 156.207 492.51 153.199" stroke="#734949" stroke-width="1.3603" stroke-linecap="round" stroke-linejoin="round"/>
<path d="M448.474 175.766C448.615 177.363 447.499 178.779 445.986 178.925C444.473 179.067 443.132 177.893 442.996 176.297C442.856 174.701 443.967 173.288 445.48 173.142C446.993 173 448.334 174.17 448.474 175.766Z" fill="#734949"/>
<path d="M442.243 178.066L437.416 189.827C436.75 191.443 438.185 193.134 439.781 192.624L448.23 189.914L442.243 178.066Z" fill="#F0B99A"/>
<path d="M449.425 195.736L455.113 191.38" stroke="#734949" stroke-width="1.3603" stroke-linecap="round" stroke-linejoin="round"/>
<path d="M442.976 156.47C442.976 156.47 436.653 158.108 437.337 161.125C437.337 161.125 437.848 163.144 443.329 161.591C448.811 160.042 450.091 159.069 450.108 156.988C450.125 154.903 445.873 155.442 442.976 156.47Z" fill="#734949"/>
<path d="M502.368 213.25C501.93 212.733 499.21 189.148 499.21 189.148L490.511 199.306L502.368 213.25Z" fill="#D79777"/>
<path d="M509.95 226.057C509.95 226.057 509.709 247.24 522.924 281.732C536.142 316.224 531.171 376.216 531.171 376.216C531.171 376.216 568.097 397.209 623.483 396.459C623.483 396.459 629.265 303.076 602.89 245.745C578.748 193.253 536.842 197.391 536.842 197.391L509.95 226.057Z" fill="#ECECEC"/>
<path d="M440.201 316.242L366.564 333.431L364.099 350.619H466.852L440.201 316.242Z" fill="#F0B99A"/>
<path d="M514.636 225.967L440.201 316.245L466.852 350.619L557.88 274.991L514.636 225.967Z" fill="#ECECEC"/>
<path d="M527.956 299.853L557.876 274.991" stroke="#EBEEF1" stroke-width="1.78858" stroke-miterlimit="10"/>
<path d="M443.189 545.812L467.419 597.525L498.039 595.427L478.071 538.193L443.189 545.812Z" fill="#F0B99A"/>
<path d="M463.008 590.576L419.163 615.538C415.934 617.342 414.301 621.246 415.211 624.986L510.201 622.964L499.186 589.296L463.008 590.576Z" fill="#000103"/>
<path d="M511.963 632.92L414.291 635L414.087 625.011L511.753 622.931L511.963 632.92Z" fill="#FDFDFF"/>
<path d="M440.201 576.869L492.681 565.915L455.409 421.052C450.398 402.34 431.488 391.967 414.107 398.392C397.344 404.584 388.584 424.024 394.6 441.668L440.201 576.869Z" fill="#79A5F2"/>
<path d="M531.171 376.212L417.862 397.266C417.862 397.266 409.068 413.856 416.419 423.781L428.867 440.575C431.882 444.641 436.5 450.74 441.389 450.74L580.361 447.018C580.361 447.018 623.972 451.536 623.483 396.459L531.171 376.212Z" fill="#79A5F2"/>
<path d="M462.659 449.223L448.588 437.047" stroke="#4A6595" stroke-width="1.78858" stroke-miterlimit="10"/>
<path d="M286.077 49.0948H386.295C388.017 49.0948 389.413 47.6211 389.413 45.8027V3.29211C389.413 1.47369 388.017 0 386.295 0H286.077C284.355 0 282.96 1.47369 282.96 3.29211V45.8027C282.96 47.6211 284.355 49.0948 286.077 49.0948Z" fill="#4A6595"/>
<path d="M377.7 42.2684V61.8948L359.114 42.2684H377.7Z" fill="#4A6595"/>
</svg>
