<svg width="590" height="461" viewBox="0 0 590 461" fill="none" xmlns="http://www.w3.org/2000/svg">
<path d="M124.362 270.039V459.212" stroke="#ECECEC" stroke-width="4.70729" stroke-miterlimit="10"/>
<path d="M309.691 270.039V459.212" stroke="#ECECEC" stroke-width="4.70729" stroke-miterlimit="10"/>
<path d="M86.7791 270.039H355.361V255.685H86.7791V270.039Z" fill="#202F33"/>
<path d="M590 459.212H0" stroke="#202F33" stroke-width="2.35251" stroke-miterlimit="10"/>
<path d="M463.389 331.601C463.389 331.601 489.903 315.584 479.376 259.588" stroke="black" stroke-width="2.35251" stroke-miterlimit="10"/>
<path d="M465.97 271.371H478.786V162.155H465.97V271.371Z" fill="#4A6595"/>
<path d="M477.42 271.373C466.613 271.373 457.851 262.125 457.851 250.709V182.758C457.851 171.347 466.613 162.096 477.42 162.096C488.229 162.096 496.989 171.347 496.989 182.758V250.709C496.989 262.125 488.229 271.373 477.42 271.373Z" fill="#4A6595"/>
<path d="M468.203 271.373C458.629 271.373 450.865 263.18 450.865 253.067V180.402C450.865 170.292 458.629 162.096 468.203 162.096C477.777 162.096 485.541 170.292 485.541 180.402V253.067C485.541 263.18 477.777 271.373 468.203 271.373Z" fill="#4A6595"/>
<path d="M434.615 420.529H419.865V334.649H434.615V420.529Z" fill="#FDFDFF"/>
<path d="M423.682 409.588L381.298 429.818L381.898 435.551L426.093 420.532L423.682 409.588Z" fill="#FDFDFF"/>
<path d="M430.88 409.588L473.262 429.818L472.662 435.551L428.467 420.532L430.88 409.588Z" fill="#FDFDFF"/>
<path d="M393.348 445.797C393.348 451.704 388.811 456.495 383.217 456.495C377.621 456.495 373.086 451.704 373.086 445.797C373.086 439.887 377.621 435.099 383.217 435.099C388.811 435.099 393.348 439.887 393.348 445.797Z" fill="#000103"/>
<path d="M483.393 445.797C483.393 451.704 478.856 456.495 473.263 456.495C467.666 456.495 463.132 451.704 463.132 445.797C463.132 439.887 467.666 435.099 473.263 435.099C478.856 435.099 483.393 439.887 483.393 445.797Z" fill="#000103"/>
<path d="M468.869 340.628H383.363C378.641 340.628 374.814 336.587 374.814 331.598C374.814 326.612 378.641 322.568 383.363 322.568H468.869C473.59 322.568 477.42 326.612 477.42 331.598C477.42 336.587 473.59 340.628 468.869 340.628Z" fill="#4A6595"/>
<path d="M179.193 251.194H173.089V136.59H179.193V251.194Z" fill="#ECECEC"/>
<path d="M207.943 252.385H146.492V245.944H207.943V252.385Z" fill="#ECECEC"/>
<path d="M220.674 203.007L207.134 208.177L155.476 57.3611L169.019 52.188L220.674 203.007Z" fill="#ECECEC"/>
<path d="M168.008 131.984C168.008 142.838 176.338 151.642 186.62 151.642C191.621 151.642 196.153 149.546 199.496 146.156C195.421 134.814 191.327 123.411 185.31 112.397C175.643 113.111 168.008 121.594 168.008 131.984Z" fill="#ECECEC"/>
<path d="M175.711 116.108L181.896 150.911C181.896 150.911 184.316 151.93 187.852 151.56L175.711 116.108Z" fill="#9E9E9E"/>
<path d="M353.222 141.679L370.779 162.324L387.985 143.411L361.601 112.807L353.222 141.679Z" fill="#F0B99A"/>
<path d="M259.196 247.211H213.687V252.492H259.196V247.211Z" fill="#FDFDFF"/>
<path d="M266.747 254.717C266.747 254.717 247.138 257.107 240.903 242.141L224.614 246.97C222.685 247.253 220.939 245.871 220.71 243.882C220.511 242.156 221.531 240.494 223.142 239.93L235.932 233.927C237.628 233.335 239.39 233.061 241.163 233.134C245.394 233.306 255.828 237.171 267.128 242.481L266.747 254.717Z" fill="#F0B99A"/>
<path d="M373.162 83.8696C369.129 77.2824 359.37 72.2615 351.946 72.0442C320.092 71.0992 311.732 100.783 311.732 100.783C351.08 69.4619 348.778 113.197 348.778 113.197C348.778 113.197 356.316 118.024 358.158 120.603C366.46 132.222 374.243 128.678 374.243 128.678C376.637 106.271 379.686 94.5258 373.162 83.8696Z" fill="#734949"/>
<path d="M319.219 90.2137C319.219 90.2137 307.238 98.2618 313.443 115.696C313.443 115.696 318.07 128.274 324.874 146.326C328.468 155.864 339.67 159.895 347.587 153.943C352.435 150.294 357.457 145.28 361.013 138.598L365.501 127.882C374.617 99.5249 345.389 73.7869 320.982 89.0647C320.398 89.4289 319.812 89.8109 319.219 90.2137Z" fill="#F0B99A"/>
<path d="M349.756 118.868C345.253 119.339 341.126 116.179 340.151 111.518L337.219 97.4567C337.219 97.4567 324.673 112.491 317.294 100.143C317.294 100.143 298.741 111.001 294.838 97.2362C290.932 83.4742 303.146 80.0113 329.697 71.6189C329.697 71.6189 324.478 66.8218 328.408 64.3194C332.341 61.817 340.533 67.8184 340.533 67.8184C340.533 67.8184 340.67 59.6351 345.216 59.5917C349.765 59.5484 352.124 65.2087 352.124 65.2087C352.124 65.2087 384.905 59.6979 380.041 97.7955L374.251 128.682L355.144 113.463L349.756 118.868Z" fill="#734949"/>
<path d="M365.086 111.233C367.491 116.064 365.73 122.035 361.152 124.567C356.575 127.098 350.915 125.234 348.507 120.402C346.101 115.571 347.863 109.603 352.44 107.071C357.018 104.537 362.681 106.401 365.086 111.233Z" fill="#F0B99A"/>
<path d="M354.002 119.599C354.002 119.599 350.837 113.254 357.084 111.073" stroke="#734949" stroke-width="1.3603" stroke-linecap="round" stroke-linejoin="round"/>
<path d="M325.156 127.436C325.258 128.593 324.449 129.62 323.352 129.726C322.255 129.829 321.283 128.978 321.184 127.82C321.083 126.663 321.888 125.639 322.986 125.533C324.083 125.43 325.055 126.278 325.156 127.436Z" fill="#734949"/>
<path d="M320.638 129.103L317.139 137.63C316.656 138.802 317.696 140.027 318.854 139.658L324.979 137.693L320.638 129.103Z" fill="#F0B99A"/>
<path d="M325.846 141.914L329.969 138.756" stroke="#734949" stroke-width="1.3603" stroke-linecap="round" stroke-linejoin="round"/>
<path d="M321.17 113.445C321.17 113.445 316.585 114.633 317.082 116.82C317.082 116.82 317.452 118.284 321.426 117.158C325.4 116.035 326.328 115.329 326.341 113.821C326.353 112.309 323.27 112.699 321.17 113.445Z" fill="#734949"/>
<path d="M364.231 154.612C363.914 154.237 361.942 137.138 361.942 137.138L355.635 144.502L364.231 154.612Z" fill="#D79777"/>
<path d="M369.728 163.897C369.728 163.897 369.553 179.256 379.135 204.263C388.718 229.271 385.114 272.767 385.114 272.767C385.114 272.767 411.886 287.987 452.043 287.444C452.043 287.444 456.235 219.739 437.112 178.172C419.609 140.114 389.226 143.114 389.226 143.114L369.728 163.897Z" fill="#ECECEC"/>
<path d="M319.158 229.284L265.77 241.746L263.982 254.209H338.481L319.158 229.284Z" fill="#F0B99A"/>
<path d="M373.126 163.832L319.159 229.287L338.481 254.209L404.479 199.376L373.126 163.832Z" fill="#ECECEC"/>
<path d="M382.783 217.402L404.476 199.376" stroke="#EBEEF1" stroke-width="1.78858" stroke-miterlimit="10"/>
<path d="M321.325 395.729L338.892 433.222L361.093 431.701L346.615 390.205L321.325 395.729Z" fill="#F0B99A"/>
<path d="M335.694 428.184L303.905 446.282C301.564 447.59 300.38 450.421 301.039 453.132L369.91 451.666L361.924 427.256L335.694 428.184Z" fill="#000103"/>
<path d="M371.188 458.885L300.373 460.393L300.225 453.15L371.036 451.642L371.188 458.885Z" fill="#FDFDFF"/>
<path d="M319.159 418.246L357.208 410.304L330.185 305.274C326.551 291.707 312.842 284.187 300.24 288.845C288.086 293.335 281.735 307.429 286.097 320.222L319.159 418.246Z" fill="#79A5F2"/>
<path d="M385.114 272.764L302.962 288.029C302.962 288.029 296.586 300.057 301.916 307.253L310.941 319.429C313.127 322.377 316.475 326.799 320.02 326.799L420.778 324.1C420.778 324.1 452.397 327.376 452.043 287.444L385.114 272.764Z" fill="#79A5F2"/>
<path d="M335.441 325.699L325.239 316.871" stroke="#4A6595" stroke-width="1.78858" stroke-miterlimit="10"/>
<path d="M207.414 35.5951H280.075C281.323 35.5951 282.335 34.5266 282.335 33.2082V2.38687C282.335 1.06846 281.323 0 280.075 0H207.414C206.166 0 205.154 1.06846 205.154 2.38687V33.2082C205.154 34.5266 206.166 35.5951 207.414 35.5951Z" fill="#4A6595"/>
<path d="M273.842 30.6459V44.8755L260.367 30.6459H273.842Z" fill="#4A6595"/>
</svg>
