<svg width="25" height="23" viewBox="0 0 25 23" fill="none" xmlns="http://www.w3.org/2000/svg">
<path d="M1.62484 0.625H23.3748C23.6953 0.625 24.0027 0.752306 24.2293 0.978913C24.4559 1.20552 24.5832 1.51286 24.5832 1.83333V21.1667C24.5832 21.4871 24.4559 21.7945 24.2293 22.0211C24.0027 22.2477 23.6953 22.375 23.3748 22.375H1.62484C1.30437 22.375 0.997023 22.2477 0.770416 22.0211C0.54381 21.7945 0.416504 21.4871 0.416504 21.1667V1.83333C0.416504 1.51286 0.54381 1.20552 0.770416 0.978913C0.997023 0.752306 1.30437 0.625 1.62484 0.625ZM12.5723 11.117L4.8245 4.53758L3.25971 6.37908L12.588 14.2997L21.7484 6.37304L20.1679 4.54483L12.5735 11.117H12.5723Z" fill="white"/>
</svg>
