<svg width="24" height="23" viewBox="0 0 24 23" fill="none" xmlns="http://www.w3.org/2000/svg">
<path d="M5.14589 0.419928L0.352095 6.14442L0.251299 6.28038C0.0723589 6.5559 -0.016134 6.89983 0.00242374 7.24764C0.0209815 7.59544 0.145314 7.92322 0.352095 8.16947L0.46609 8.28825C0.697106 8.50166 0.985478 8.6072 1.2771 8.58507C1.56872 8.56294 1.84355 8.41465 2.05002 8.16803L4.8003 4.88074V21.4675L4.8087 21.6349C4.84282 21.9833 4.98302 22.3046 5.20268 22.5378C5.42234 22.771 5.70616 22.8999 6.00025 22.9L6.14065 22.89C6.43274 22.849 6.70203 22.6814 6.89736 22.4192C7.09269 22.1569 7.20046 21.8182 7.2002 21.4675V4.89076L9.95169 8.16803L10.0657 8.28825C10.3069 8.51339 10.6112 8.62 10.9161 8.58623C11.2211 8.55246 11.5037 8.38088 11.7061 8.10663C11.9084 7.83237 12.0152 7.47622 12.0044 7.11114C11.9937 6.74606 11.8663 6.39969 11.6484 6.14299L6.84142 0.418496L6.72862 0.299713C6.49761 0.0862995 6.20923 -0.0192423 5.91761 0.00289067C5.62599 0.0250237 5.35116 0.173311 5.14469 0.419928H5.14589ZM17.9997 0.00490106L17.8593 0.0149196C17.5675 0.0559316 17.2983 0.223281 17.103 0.485226C16.9077 0.747172 16.7998 1.0855 16.7998 1.43603V18.0084L14.0483 14.7312L13.9343 14.611C13.693 14.3884 13.3897 14.2839 13.0861 14.3185C12.7825 14.3531 12.5013 14.5243 12.2997 14.7974C12.0982 15.0704 11.9913 15.4247 12.001 15.7883C12.0106 16.1519 12.136 16.4975 12.3516 16.7548L17.1562 22.4793L17.269 22.5995C17.5 22.8129 17.7884 22.9184 18.08 22.8963C18.3716 22.8742 18.6464 22.7259 18.8529 22.4793L23.6479 16.7548L23.7487 16.6188C23.9276 16.3433 24.0161 15.9994 23.9976 15.6516C23.979 15.3038 23.8547 14.976 23.6479 14.7297L23.5339 14.611C23.3029 14.3975 23.0145 14.292 22.7229 14.3141C22.4313 14.3363 22.1564 14.4846 21.95 14.7312L19.1997 18.0142V1.43603L19.1913 1.27002C19.1572 0.921634 19.017 0.600324 18.7973 0.367103C18.5777 0.133881 18.2938 0.00498847 17.9997 0.00490106Z" fill="#1A6493"/>
</svg>
